<svg width="1440" height="615" viewBox="0 0 1440 615" fill="none" xmlns="http://www.w3.org/2000/svg">
<path d="M-4.24936 -0.0754039C-4.10599 -0.256925 -3.9938 -0.398683 -3.9136 -0.5H1436.03L1436.32 -0.331258C1436.58 -0.17353 1436.98 0.0624832 1437.51 0.375146C1438.55 1.00047 1440.09 1.93239 1442.08 3.1578C1446.06 5.60864 1451.82 9.23342 1458.95 13.9274C1473.21 23.3155 1492.96 36.9796 1514.91 54.0818C1558.81 88.2918 1611.45 136.235 1646.54 191.207C1681.63 246.176 1699.11 308.096 1672.85 370.338C1646.58 432.608 1576.47 495.348 1435.98 551.79C1171.44 658.069 986.406 598.592 794.094 536.778C782.215 532.959 770.309 529.132 758.354 525.335C655.605 492.696 549.291 462.244 426.48 458.489C303.661 454.735 164.368 477.681 -4.35638 551.796C-88.6702 588.832 -151.865 607.947 -197.909 613.069C-243.966 618.192 -272.738 609.305 -288.389 590.511C-304.055 571.699 -306.722 542.793 -300.141 507.525C-293.564 472.276 -277.774 430.798 -256.699 386.975C-214.551 299.334 -151.321 202.421 -98.6189 127.408C-72.2694 89.9034 -48.5548 57.8781 -31.4277 35.2292C-22.8642 23.9048 -15.9477 14.9246 -11.1723 8.77579C-8.78464 5.70139 -6.93225 3.33486 -5.67688 1.73708C-5.04922 0.93819 -4.5708 0.331492 -4.24936 -0.0754039Z" fill="url(#paint0_linear_1_3)" stroke="black"/>
<defs>
<linearGradient id="paint0_linear_1_3" x1="691" y1="-1" x2="691" y2="615" gradientUnits="userSpaceOnUse">
<stop offset="0.317708" stop-color="#FE774E"/>
<stop offset="0.666667" stop-color="#FE5758"/>
</linearGradient>
</defs>
</svg>
